<?xml version="1.0" encoding="UTF-8" standalone="no"?>
<!DOCTYPE svg PUBLIC "-//W3C//DTD SVG 1.1//EN" "http://www.w3.org/Graphics/SVG/1.1/DTD/svg11.dtd">
<svg width="100%" height="100%" viewBox="0 0 123 154" version="1.1" xmlns="http://www.w3.org/2000/svg" xmlns:xlink="http://www.w3.org/1999/xlink" xml:space="preserve" xmlns:serif="http://www.serif.com/" style="fill-rule:evenodd;clip-rule:evenodd;stroke-miterlimit:22.9256;">
    <g transform="matrix(0.111966,0,0,0.111966,61.1806,76.6578)">
        <g transform="matrix(1,0,0,1,-546.421,-684.653)">
            <g id="Vrstva-1" serif:id="Vrstva 1" transform="matrix(4.16667,0,0,4.16667,0,0)">
                <g transform="matrix(1,0,0,1,1,1)">
                    <path d="M260.282,0L260.282,196.492C260.282,268.069 201.718,326.633 130.141,326.633C58.564,326.633 0,268.07 0,196.492L0,0L260.282,0Z" style="fill:rgb(35,31,32);"/>
                </g>
                <g transform="matrix(1,0,0,1,1,1)">
                    <path d="M254.613,5.669L5.669,5.669L5.669,196.492C5.669,264.94 61.693,320.964 130.141,320.964C198.589,320.964 254.613,264.94 254.613,196.492L254.613,5.669Z" style="fill:rgb(0,174,239);"/>
                </g>
                <g transform="matrix(0.45411,0,0,0.45411,1,162.914)">
                    <path d="M327.068,125.478C320.158,111.92 313.113,104.941 305.351,100.593C293.68,92.951 280.23,95.604 270.338,105.301C263.42,113.606 255.961,119.977 245.173,121.858C248.063,127.914 244.141,133.042 233.409,137.242C221.276,139.008 212.084,135.261 204.904,127.741C197.609,133.986 186.6,137.757 171.874,139.052C140.469,146.268 127.731,169.044 142.917,201.492C140.199,213.745 146.999,221.588 152.871,225.019C165.602,255.874 196.674,269.779 227.979,236.783C232.917,231.472 239.403,227.401 247.435,224.567C250.942,200.394 271.553,189.301 280.013,201.039C289.826,191.997 303.587,192.475 317.115,190.632C331.317,189.106 337.758,176.959 337.719,158.716C337.36,153.376 336.071,147.725 333.856,141.767L327.068,125.478Z" style="fill:white;stroke:rgb(35,31,32);stroke-width:1.31px;"/>
                </g>
                <g transform="matrix(1,0,0,1,1,113.181)">
                    <path d="M195.374,85.549L194.141,86.166L193.936,87.604L117.296,119.041L121.611,128.903L198.251,91.919L195.374,85.549Z" style="fill:rgb(35,31,32);"/>
                </g>
                <g transform="matrix(0.45411,0,0,0.45411,1,133.594)">
                    <path d="M324.354,190.259C317.477,178.903 311.226,172.235 303.725,167.443C292.682,160.775 281.638,162.234 270.594,175.569C264.968,182.966 257.675,187.029 248.716,187.759C249.901,195.273 246.593,201.29 235.276,204.637C225.586,207.866 215.481,205.262 204.958,196.823C194.331,202.501 182.558,205.314 170.264,206.825C145.807,211.721 134.086,232.453 145.885,266.522" style="fill:none;fill-rule:nonzero;stroke:rgb(35,31,32);stroke-width:1.31px;"/>
                </g>
                <g transform="matrix(0.45411,0,0,0.45411,1,183.223)">
                    <path d="M155.261,179.736C173.024,211.513 197.403,220.16 224.961,190.676C229.858,184.425 237.255,179.945 244.652,177.861C248.846,153.404 266.817,141.579 280.596,151.919C290.807,145.564 301.016,142.959 311.226,144.105C329.707,144.692 339.943,122.788 331.855,97.847" style="fill:none;fill-rule:nonzero;stroke:rgb(35,31,32);stroke-width:1.31px;"/>
                </g>
                <g transform="matrix(-0.0343205,0.452811,0.452811,0.0343205,12.5468,170.97)">
                    <path d="M174.298,130.758C186.561,130.334 193.332,134.908 197.439,142.888C177.488,157.779 171.213,174.423 174.298,192.264L147.886,177.631C166.038,169.632 174.702,151.892 174.298,130.758Z" style="fill:none;fill-rule:nonzero;stroke:rgb(35,31,32);stroke-width:1.31px;"/>
                </g>
                <g transform="matrix(-0.416187,0.181672,0.181672,0.416187,163.577,120.491)">
                    <path d="M188.7,190.708L264.533,190.708" style="fill:none;fill-rule:nonzero;stroke:rgb(35,31,32);stroke-width:1.31px;"/>
                </g>
                <g transform="matrix(-0.415048,0.184258,0.184258,0.415048,165.326,122.966)">
                    <path d="M190.939,186.993L266.472,186.993" style="fill:none;fill-rule:nonzero;stroke:rgb(35,31,32);stroke-width:1.31px;"/>
                </g>
                <g transform="matrix(-0.412286,0.190358,0.190358,0.412286,166.419,126.167)">
                    <path d="M193.024,181.808L268.722,181.808" style="fill:none;fill-rule:nonzero;stroke:rgb(35,31,32);stroke-width:1.31px;"/>
                </g>
                <g transform="matrix(-0.410739,0.193674,0.193674,0.410739,168.627,129.472)">
                    <path d="M195.863,176.855L270.991,176.855" style="fill:none;fill-rule:nonzero;stroke:rgb(35,31,32);stroke-width:1.31px;"/>
                </g>
                <g transform="matrix(0.391707,0.92009,0.92009,-0.391707,-13.351,186.256)">
                    <path d="M92.075,80.569L107.507,80.569L107.29,82.571L92.014,82.581L92.075,80.569Z" style="fill:rgb(35,31,32);"/>
                </g>
                <g transform="matrix(1,0,0,1,1,137.191)">
                    <path d="M96.97,95.686C101.116,92.161 92.687,90.365 95.213,95.474C96.647,97.881 99.611,98.584 104.422,97.232L105.898,98.567L106.53,98.216L106.46,96.388L110.678,95.896C110.759,100.078 115.167,97.882 113.349,95.334C112.16,93.72 109.524,93.778 105.898,94.983L103.719,93.295L103.719,96.037C100.344,97.094 98.094,96.977 96.97,95.686" style="fill:rgb(35,31,32);"/>
                </g>
                <g transform="matrix(1,0,0,1,1,176.679)">
                    <path d="M115.38,68.665C114.821,69.716 113.162,70.62 111.194,71.484L110.421,70.075L109.787,70.427C109.916,71.19 109.67,71.894 109.33,72.47C106.188,74.114 105.063,76.886 105.954,80.786C108.181,84.673 111.323,77.92 106.938,79.024C107.018,76.187 108.032,74.202 110.174,73.245L111.159,73.598L112.179,75.042L112.882,74.584L112.249,73.809L112.39,71.906C114.612,71.178 116.394,70.391 117.208,69.476C118.58,69.534 119.459,67.62 118.193,66.727C117.748,66.281 115.227,66.293 115.38,68.665" style="fill:rgb(35,31,32);"/>
                </g>
                <g transform="matrix(0.45411,0,0,0.45411,1,81.1499)">
                    <path d="M146.275,252.193L157.882,260.069C159.697,253.919 163.491,250.633 169.488,250.535C197.108,265.246 223.142,282.336 248.287,300.763L252.93,298.905C222.062,276.531 191.082,255.708 159.592,242.02C156.634,247.226 152.021,250.404 146.275,252.193Z" style="fill:white;stroke:rgb(35,31,32);stroke-width:1.31px;"/>
                </g>
                <g transform="matrix(0.37635,0.254119,0.254119,-0.37635,-48.6377,257.283)">
                    <path d="M149.316,256.068L247.651,256.068" style="fill:none;fill-rule:nonzero;stroke:rgb(35,31,32);stroke-width:2.63px;"/>
                </g>
                <g transform="matrix(0.45411,0,0,0.45411,1,193.493)">
                    <path d="M334.484,110.14L447.268,174.107L445.411,176.893C434.111,169.153 424.669,171.94 417.084,185.252L401.993,174.571L409.19,159.944L331.873,114.9C333.053,113.468 333.925,111.881 334.484,110.14Z" style="fill:white;stroke:rgb(35,31,32);stroke-width:1.31px;"/>
                </g>
                <g transform="matrix(0.380057,0.24854,0.24854,-0.380057,-8.91463,226.611)">
                    <path d="M315.104,147.87L409.706,147.87" style="fill:none;fill-rule:nonzero;stroke:rgb(35,31,32);stroke-width:2.63px;"/>
                </g>
                <g transform="matrix(-0.45411,0,0,0.45411,378.961,211.892)">
                    <ellipse cx="416.156" cy="127.438" rx="2.554" ry="2.438" style="fill:none;stroke:rgb(35,31,32);stroke-width:2.63px;"/>
                </g>
                <g transform="matrix(-0.185427,0.414527,0.414527,0.185427,229.623,66.6494)">
                    <path d="M436.134,124.196L439.832,124.197" style="fill:none;fill-rule:nonzero;stroke:rgb(35,31,32);stroke-width:1.31px;"/>
                </g>
                <g transform="matrix(-0.202766,0.406327,0.406327,0.202766,240.26,67.7341)">
                    <path d="M438.826,123.207L442.078,123.207" style="fill:none;fill-rule:nonzero;stroke:rgb(35,31,32);stroke-width:1.31px;"/>
                </g>
                <g transform="matrix(-0.206053,0.40467,0.40467,0.206053,244.214,67.9422)">
                    <path d="M441.466,121.782L444.666,121.782" style="fill:none;fill-rule:nonzero;stroke:rgb(35,31,32);stroke-width:1.31px;"/>
                </g>
                <g transform="matrix(-0.220288,0.397101,0.397101,0.220288,253.05,69.5143)">
                    <path d="M443.369,120.793L446.363,120.793" style="fill:none;fill-rule:nonzero;stroke:rgb(35,31,32);stroke-width:1.31px;"/>
                </g>
                <g transform="matrix(0.45411,0,0,0.45411,1,72.1834)">
                    <path d="M429.975,279.451L449.587,269.78L453.079,276.362L455.497,283.75L436.423,292.749L429.975,279.451Z" style="fill:white;stroke:rgb(35,31,32);stroke-width:1.31px;"/>
                </g>
                <g transform="matrix(-0.22882,-0.392246,-0.392246,0.22882,412.956,302.511)">
                    <path d="M436.602,284.701L438.468,284.701L439.677,291.305L436.863,291.547C436.863,291.547 436.534,284.585 436.602,284.701Z" style="fill:white;stroke:rgb(35,31,32);stroke-width:1.31px;"/>
                </g>
                <g transform="matrix(0.212475,0.401336,0.401336,-0.212475,-0.677588,83.0211)">
                    <path d="M444.282,276.003L446.866,276.003L446.824,269.033L443.877,268.921L444.282,276.003Z" style="fill:white;stroke:rgb(35,31,32);stroke-width:1.31px;"/>
                </g>
                <g transform="matrix(-0.413594,0.187499,0.187499,0.413594,332.162,-0.657628)">
                    <path d="M431.675,282.675L453.797,282.675" style="fill:none;fill-rule:nonzero;stroke:rgb(35,31,32);stroke-width:1.31px;"/>
                </g>
                <g transform="matrix(-0.396307,0.221713,0.221713,0.396307,315.943,-9.25477)">
                    <path d="M432.47,280.526L454.48,280.526" style="fill:none;fill-rule:nonzero;stroke:rgb(35,31,32);stroke-width:1.31px;"/>
                </g>
                <g transform="matrix(-0.155184,-0.426771,-0.426771,0.155184,357.253,332.391)">
                    <path d="M392.791,270.721L399.08,270.721L399.057,268.3L392.642,268.346L392.791,270.721Z" style="fill:white;stroke:rgb(35,31,32);stroke-width:1.31px;"/>
                </g>
                <g transform="matrix(-0.429254,0.148178,0.148178,0.429254,307.613,25.6319)">
                    <ellipse cx="393.375" cy="275.891" rx="4.903" ry="3.425" style="fill:white;stroke:rgb(35,31,32);stroke-width:1.31px;"/>
                </g>
                <g transform="matrix(-0.155189,-0.42677,-0.42677,0.155189,370.106,335.29)">
                    <path d="M409.178,277.438L415.467,277.438L415.444,275.016L409.029,275.063L409.178,277.438Z" style="fill:white;stroke:rgb(35,31,32);stroke-width:1.31px;"/>
                </g>
                <g transform="matrix(-0.429271,0.148129,0.148129,0.429271,321.115,17.2865)">
                    <ellipse cx="409.763" cy="282.607" rx="4.903" ry="3.426" style="fill:white;stroke:rgb(35,31,32);stroke-width:1.31px;"/>
                </g>
                <g transform="matrix(0.232291,0.390201,0.390201,-0.232291,-6.72608,103.108)">
                    <path d="M423.242,263.401L429.531,263.401L429.508,260.98L423.092,261.026L423.242,263.401Z" style="fill:white;stroke:rgb(35,31,32);stroke-width:1.31px;"/>
                </g>
                <g transform="matrix(0.39397,-0.22584,-0.22584,-0.39397,84.7677,409.344)">
                    <ellipse cx="430.08" cy="256.387" rx="4.903" ry="3.425" style="fill:white;stroke:rgb(35,31,32);stroke-width:1.31px;"/>
                </g>
                <g transform="matrix(0.232272,0.390212,0.390212,-0.232272,-7.11582,110.502)">
                    <path d="M408.466,256.013L414.755,256.013L414.732,253.592L408.317,253.637L408.466,256.013Z" style="fill:white;stroke:rgb(35,31,32);stroke-width:1.31px;"/>
                </g>
                <g transform="matrix(0.393965,-0.225848,-0.225848,-0.393965,82.2145,406.453)">
                    <ellipse cx="415.304" cy="248.999" rx="4.903" ry="3.425" style="fill:white;stroke:rgb(35,31,32);stroke-width:1.31px;"/>
                </g>
                <g transform="matrix(0.46908,0,0,0.46908,1,-129.441)">
                    <path d="M170.53,630.371L380.178,629.255L379.436,579.073L252.308,579.445L252.308,577.214L250.078,574.612L244.13,548.221L242.839,486.635L244.779,486.607L232.235,476.851C249.506,462.82 243.191,448.634 228.89,438.936C220.914,433.916 215.137,429.76 214.248,423.133C216.656,422.513 216.656,419.669 214.248,419.327L212.901,416.728L212.39,398.995C213.687,398.376 213.736,396.781 212.206,395.469C210.928,394.891 210.889,394.09 212.111,392.309C213.775,389.385 212.805,384.61 210.209,382.567C207.797,380.246 207.377,378.108 207.19,375.043C209.136,373.465 209.197,369.847 206.819,368.916L206.82,356.476L215.363,356.476L215.363,353.413L206.82,353.227L206.634,344.036L203.478,344.036L203.292,353.32L195.308,353.134L195.308,356.291L203.292,356.291L203.478,368.731C201.069,370.773 201.717,373.557 203.107,375.043C202.57,378.392 201.963,380.019 199.388,382.287C196.487,384.61 195.159,389.527 198.279,392.405C199.477,393.616 199.152,394.646 197.999,395.425C196.829,395.977 196.106,398.244 197.722,398.81L198.112,399.127L198.293,416.638L197.23,419.371C195.137,420.091 195.014,422.357 196.584,422.983C194.817,427.393 190.458,433.048 184.017,437.479C181.111,439.571 178.87,441.76 175.969,444.063C166.035,453.429 165.182,466.686 178.412,477.72L167.828,487.376L169.871,487.561L170.53,630.371Z" style="fill:white;stroke:rgb(35,31,32);stroke-width:1.31px;"/>
                </g>
                <g transform="matrix(0.46908,0,0,0.46908,1,-234.67)">
                    <path d="M202.93,599.368L207.099,599.368" style="fill:none;fill-rule:nonzero;stroke:rgb(35,31,32);stroke-width:1.31px;"/>
                </g>
                <g transform="matrix(0.46908,0,0,0.46908,1,-229.629)">
                    <path d="M201.262,593.995L208.304,593.995" style="fill:none;fill-rule:nonzero;stroke:rgb(35,31,32);stroke-width:1.31px;"/>
                </g>
                <g transform="matrix(0.46908,0,0,0.46908,1,-226.412)">
                    <path d="M197.834,590.566L211.361,590.566" style="fill:none;fill-rule:nonzero;stroke:rgb(35,31,32);stroke-width:1.31px;"/>
                </g>
                <g transform="matrix(0.46908,0,0,0.46908,1,-223.37)">
                    <path d="M196.63,587.324L212.658,587.324" style="fill:none;fill-rule:nonzero;stroke:rgb(35,31,32);stroke-width:1.31px;"/>
                </g>
                <g transform="matrix(0.469073,-0.00262808,-0.00262808,-0.469073,2.53835,328.167)">
                    <path d="M196.444,584.776L212.936,584.776" style="fill:none;fill-rule:nonzero;stroke:rgb(35,31,32);stroke-width:1.31px;"/>
                </g>
                <g transform="matrix(0.46908,0,0,0.46908,1,-218.85)">
                    <path d="M197.927,582.506L212.195,582.506" style="fill:none;fill-rule:nonzero;stroke:rgb(35,31,32);stroke-width:1.31px;"/>
                </g>
                <g transform="matrix(0.469067,-0.00355545,-0.00355545,-0.469067,3.06741,328.355)">
                    <path d="M198.946,580.699L211.176,580.699" style="fill:none;fill-rule:nonzero;stroke:rgb(35,31,32);stroke-width:1.31px;"/>
                </g>
                <g transform="matrix(0.469044,0.00581078,0.00581078,-0.469044,-2.35482,326.421)">
                    <path d="M197.648,578.615L212.566,578.615" style="fill:none;fill-rule:nonzero;stroke:rgb(35,31,32);stroke-width:1.31px;"/>
                </g>
                <g transform="matrix(0.46908,0,0,0.46908,1,-212.331)">
                    <path d="M197.742,575.557L212.658,575.557" style="fill:none;fill-rule:nonzero;stroke:rgb(35,31,32);stroke-width:1.31px;"/>
                </g>
                <g transform="matrix(0.469071,0.00292378,0.00292378,-0.469071,-0.628784,327.027)">
                    <path d="M198.205,557.722L213.029,557.722" style="fill:none;fill-rule:nonzero;stroke:rgb(35,31,32);stroke-width:1.31px;"/>
                </g>
                <g transform="matrix(0.469053,0.00505991,0.00505991,-0.469053,-1.80305,326.577)">
                    <path d="M197.185,555.081L214.327,555.081" style="fill:none;fill-rule:nonzero;stroke:rgb(35,31,32);stroke-width:1.31px;"/>
                </g>
                <g transform="matrix(0.469025,0.00718287,0.00718287,-0.469025,-2.95014,326.126)">
                    <path d="M196.536,551.514L214.698,551.514" style="fill:none;fill-rule:nonzero;stroke:rgb(35,31,32);stroke-width:1.31px;"/>
                </g>
                <g transform="matrix(0.469061,-0.00424722,-0.00424722,-0.469061,3.33276,328.493)">
                    <path d="M194.591,548.318L215.068,548.318" style="fill:none;fill-rule:nonzero;stroke:rgb(35,31,32);stroke-width:1.31px;"/>
                </g>
                <g transform="matrix(0.46908,0,0,0.46908,1,-183.3)">
                    <path d="M192.553,544.612L217.013,544.612" style="fill:none;fill-rule:nonzero;stroke:rgb(35,31,32);stroke-width:1.31px;"/>
                </g>
                <g transform="matrix(0.469078,-0.00123761,-0.00123761,-0.469078,1.66822,327.886)">
                    <path d="M187.365,539.655L222.386,539.655" style="fill:none;fill-rule:nonzero;stroke:rgb(35,31,32);stroke-width:1.31px;"/>
                </g>
                <g transform="matrix(0.469022,-0.00735414,-0.00735414,-0.469022,4.94747,329.11)">
                    <path d="M181.339,535.161L228.597,535.161" style="fill:none;fill-rule:nonzero;stroke:rgb(35,31,32);stroke-width:1.31px;"/>
                </g>
                <g transform="matrix(0.469075,-0.0022173,-0.0022173,-0.469075,2.17732,328.086)">
                    <path d="M175.969,530.483L234.802,530.483" style="fill:none;fill-rule:nonzero;stroke:rgb(35,31,32);stroke-width:1.31px;"/>
                </g>
                <g transform="matrix(0.469076,-0.00195765,-0.00195765,-0.469076,2.03063,328.034)">
                    <path d="M172.17,526.035L238.878,526.035" style="fill:none;fill-rule:nonzero;stroke:rgb(35,31,32);stroke-width:1.31px;"/>
                </g>
                <g transform="matrix(0.469049,-0.00541938,-0.00541938,-0.469049,3.82859,328.73)">
                    <path d="M169.296,520.754L241.475,520.754" style="fill:none;fill-rule:nonzero;stroke:rgb(35,31,32);stroke-width:1.31px;"/>
                </g>
                <g transform="matrix(0.469071,-0.00292231,-0.00292231,-0.469071,2.50879,328.229)">
                    <path d="M168.371,515.658L242.771,515.658" style="fill:none;fill-rule:nonzero;stroke:rgb(35,31,32);stroke-width:1.31px;"/>
                </g>
                <g transform="matrix(0.469061,-0.00420249,-0.00420249,-0.469061,3.14756,328.487)">
                    <path d="M169.297,510.099L241.66,510.099" style="fill:none;fill-rule:nonzero;stroke:rgb(35,31,32);stroke-width:1.31px;"/>
                </g>
                <g transform="matrix(0.469069,-0.00318333,-0.00318333,-0.469069,2.61011,328.282)">
                    <path d="M171.243,505.097L239.527,505.097" style="fill:none;fill-rule:nonzero;stroke:rgb(35,31,32);stroke-width:1.31px;"/>
                </g>
                <g transform="matrix(0.469062,-0.00412061,-0.00412061,-0.469062,3.07185,328.471)">
                    <path d="M173.744,501.9L237.026,501.9" style="fill:none;fill-rule:nonzero;stroke:rgb(35,31,32);stroke-width:1.31px;"/>
                </g>
                <g transform="matrix(0.469066,-0.00367231,-0.00367231,-0.469066,2.83774,328.379)">
                    <path d="M175.412,499.63L234.617,499.63" style="fill:none;fill-rule:nonzero;stroke:rgb(35,31,32);stroke-width:1.31px;"/>
                </g>
                <g transform="matrix(0.469036,-0.00641672,-0.00641672,-0.469036,4.19865,328.928)">
                    <path d="M178.097,497.082L232.303,497.082" style="fill:none;fill-rule:nonzero;stroke:rgb(35,31,32);stroke-width:1.31px;"/>
                </g>
                <g transform="matrix(0.469056,-0.00470798,-0.00470798,-0.469056,3.32483,328.591)">
                    <path d="M173.465,492.774L238.139,492.774" style="fill:none;fill-rule:nonzero;stroke:rgb(35,31,32);stroke-width:1.31px;"/>
                </g>
                <g transform="matrix(0.469066,-0.0036194,-0.0036194,-0.469066,2.77419,328.372)">
                    <path d="M170.038,489.392L242.122,489.392" style="fill:none;fill-rule:nonzero;stroke:rgb(35,31,32);stroke-width:1.31px;"/>
                </g>
                <g transform="matrix(0.469062,-0.004113,-0.004113,-0.469062,3.00802,328.473)">
                    <path d="M169.297,487.308L243.234,487.308" style="fill:none;fill-rule:nonzero;stroke:rgb(35,31,32);stroke-width:1.31px;"/>
                </g>
                <g transform="matrix(-0.0140851,0.999901,0.999901,0.0140851,-128.583,27.5518)">
                    <path d="M79.873,212.621L89.131,212.621L89.095,215.185L80.01,215.231C77.913,215.242 77.203,212.859 79.873,212.621" style="fill:rgb(35,31,32);"/>
                </g>
                <g transform="matrix(-0.0108537,-0.999941,-0.999941,0.0108537,310.894,206.026)">
                    <path d="M88.726,217.795L96.723,217.795C100.359,217.741 100.919,210.592 96.599,210.321L88.603,210.408L88.726,217.795Z" style="fill:rgb(35,31,32);"/>
                </g>
                <g transform="matrix(0.00542709,0.999985,0.999985,-0.00542709,-110.31,11.451)">
                    <path d="M101.408,210.387L109.404,210.387L109.444,217.688L101.447,217.732C97.492,217.579 97.149,210.569 101.408,210.387" style="fill:rgb(35,31,32);"/>
                </g>
                <g transform="matrix(-0.00314394,-0.999995,-0.999995,0.00314394,257.064,238.21)">
                    <path d="M72.524,173.629L91.004,173.629C94.405,173.502 93.893,171.405 91.056,171.356L72.575,171.064L72.524,173.629Z" style="fill:rgb(35,31,32);"/>
                </g>
                <g transform="matrix(1,0,0,1,1,-27.6566)">
                    <path d="M122.432,182.463L128.029,182.463L128.029,176.034C127.895,172.828 122.367,172.942 122.315,176.05C122.315,176.05 122.49,182.463 122.432,182.463" style="fill:rgb(35,31,32);"/>
                </g>
                <g transform="matrix(1,0,0,1,1,-27.6566)">
                    <path d="M134.848,182.463L140.444,182.463L140.444,176.034C140.311,172.828 134.783,172.942 134.731,176.05C134.731,176.05 134.906,182.463 134.848,182.463" style="fill:rgb(35,31,32);"/>
                </g>
                <g transform="matrix(1,0,0,1,1,-27.6566)">
                    <path d="M148.571,182.463L154.168,182.463L154.168,176.034C154.034,172.828 148.506,172.942 148.454,176.05C148.454,176.05 148.629,182.463 148.571,182.463" style="fill:rgb(35,31,32);"/>
                </g>
                <g transform="matrix(1,0,0,1,1,-27.6566)">
                    <path d="M169.809,182.463L175.406,182.463L175.406,176.034C175.272,172.828 169.744,172.942 169.692,176.05C169.692,176.05 169.867,182.463 169.809,182.463" style="fill:rgb(35,31,32);"/>
                </g>
                <g transform="matrix(0.46908,-0.000520081,-0.000520081,-0.46908,1.18634,327.777)">
                    <path d="M170.673,358.146L380.103,358.146" style="fill:none;fill-rule:nonzero;stroke:rgb(35,31,32);stroke-width:1.31px;"/>
                </g>
                <g transform="matrix(0.46908,-0.000519185,-0.000519185,-0.46908,1.18243,327.776)">
                    <path d="M170.673,351.221L380.103,351.221" style="fill:none;fill-rule:nonzero;stroke:rgb(35,31,32);stroke-width:1.31px;"/>
                </g>
                <g transform="matrix(0.0043037,0.46906,0.46906,-0.0043037,-108.518,48.0249)">
                    <path d="M112.462,415.852L255.637,415.852" style="fill:none;fill-rule:nonzero;stroke:rgb(35,31,32);stroke-width:1.31px;"/>
                </g>
                <g transform="matrix(0.00452419,0.469058,0.469058,-0.00452419,-66.1957,33.9329)">
                    <path d="M203.618,385.379L285.32,385.379" style="fill:none;fill-rule:nonzero;stroke:rgb(35,31,32);stroke-width:1.31px;"/>
                </g>
                <g transform="matrix(0.46908,0,0,0.46908,1,-19.4173)">
                    <path d="M252.285,344.614L250.542,344.73L250.658,395.24" style="fill:none;fill-rule:nonzero;stroke:rgb(35,31,32);stroke-width:1.31px;"/>
                </g>
                <g transform="matrix(-0.00310937,0.46907,0.46907,0.00310937,-11.5914,-8.16478)">
                    <path d="M315.844,371.265L368.449,371.265" style="fill:none;fill-rule:nonzero;stroke:rgb(35,31,32);stroke-width:1.31px;"/>
                </g>
                <g transform="matrix(0.00108974,0.469079,0.469079,-0.00108974,-6.39634,-12.2766)">
                    <path d="M330.136,370.218L380.413,370.218" style="fill:none;fill-rule:nonzero;stroke:rgb(35,31,32);stroke-width:1.31px;"/>
                </g>
                <g transform="matrix(-0.00350377,0.469067,0.469067,0.00350377,-69.2252,64.6702)">
                    <path d="M199.829,354.594L206.884,354.594" style="fill:none;fill-rule:nonzero;stroke:rgb(35,31,32);stroke-width:1.31px;"/>
                </g>
                <g transform="matrix(-0.00350377,0.469067,0.469067,0.00350377,-61.3923,56.8956)">
                    <path d="M216.404,354.594L223.459,354.594" style="fill:none;fill-rule:nonzero;stroke:rgb(35,31,32);stroke-width:1.31px;"/>
                </g>
                <g transform="matrix(-0.00351042,0.469067,0.469067,0.00351042,-53.4581,49.0196)">
                    <path d="M233.189,354.594L240.245,354.594" style="fill:none;fill-rule:nonzero;stroke:rgb(35,31,32);stroke-width:1.31px;"/>
                </g>
                <g transform="matrix(-0.00352372,0.469067,0.469067,0.00352372,-42.5285,38.1703)">
                    <path d="M256.309,354.594L263.364,354.594" style="fill:none;fill-rule:nonzero;stroke:rgb(35,31,32);stroke-width:1.31px;"/>
                </g>
                <g transform="matrix(-0.00348383,0.469067,0.469067,0.00348383,-35.3473,31.046)">
                    <path d="M271.527,354.594L278.583,354.594" style="fill:none;fill-rule:nonzero;stroke:rgb(35,31,32);stroke-width:1.31px;"/>
                </g>
                <g transform="matrix(-0.00351042,0.469067,0.469067,0.00351042,-28.2574,24.0069)">
                    <path d="M286.514,354.594L293.569,354.594" style="fill:none;fill-rule:nonzero;stroke:rgb(35,31,32);stroke-width:1.31px;"/>
                </g>
                <g transform="matrix(-0.00352372,0.469067,0.469067,0.00352372,-20.7314,16.5363)">
                    <path d="M302.43,354.594L309.486,354.594" style="fill:none;fill-rule:nonzero;stroke:rgb(35,31,32);stroke-width:1.31px;"/>
                </g>
                <g transform="matrix(-0.00350377,0.469067,0.469067,0.00350377,-17.2787,13.1103)">
                    <path d="M309.749,354.594L316.805,354.594" style="fill:none;fill-rule:nonzero;stroke:rgb(35,31,32);stroke-width:1.31px;"/>
                </g>
                <g transform="matrix(-0.00352372,0.469067,0.469067,0.00352372,-9.3662,5.2562)">
                    <path d="M326.478,354.594L333.534,354.594" style="fill:none;fill-rule:nonzero;stroke:rgb(35,31,32);stroke-width:1.31px;"/>
                </g>
                <g transform="matrix(-0.00352372,0.469067,0.469067,0.00352372,-0.63612,-3.40854)">
                    <path d="M344.951,354.594L352.006,354.594" style="fill:none;fill-rule:nonzero;stroke:rgb(35,31,32);stroke-width:1.31px;"/>
                </g>
                <g transform="matrix(-0.00348383,0.469067,0.469067,0.00348383,10.0551,-14.0206)">
                    <path d="M367.604,354.594L374.659,354.594" style="fill:none;fill-rule:nonzero;stroke:rgb(35,31,32);stroke-width:1.31px;"/>
                </g>
                <g transform="matrix(-0.004018,0.469063,0.469063,0.004018,9.63202,-7.69306)">
                    <path d="M360.524,348.307L366.641,348.307" style="fill:none;fill-rule:nonzero;stroke:rgb(35,31,32);stroke-width:1.32px;"/>
                </g>
                <g transform="matrix(-0.004064,0.469062,0.469062,0.004064,-9.80959,11.5817)">
                    <path d="M319.398,348.307L325.515,348.307" style="fill:none;fill-rule:nonzero;stroke:rgb(35,31,32);stroke-width:1.32px;"/>
                </g>
                <g transform="matrix(-0.004064,0.469062,0.469062,0.004064,-21.6275,23.2977)">
                    <path d="M294.42,348.307L300.538,348.307" style="fill:none;fill-rule:nonzero;stroke:rgb(35,31,32);stroke-width:1.32px;"/>
                </g>
                <g transform="matrix(-0.004064,0.469062,0.469062,0.004064,-28.9931,30.5997)">
                    <path d="M278.853,348.307L284.97,348.307" style="fill:none;fill-rule:nonzero;stroke:rgb(35,31,32);stroke-width:1.32px;"/>
                </g>
                <g transform="matrix(-0.004064,0.469062,0.469062,0.004064,-36.0288,37.5747)">
                    <path d="M263.983,348.307L270.1,348.307" style="fill:none;fill-rule:nonzero;stroke:rgb(35,31,32);stroke-width:1.32px;"/>
                </g>
                <g transform="matrix(-0.00404087,0.469063,0.469063,0.00404087,-54.2296,56.0582)">
                    <path d="M225.064,347.842L231.182,347.842" style="fill:none;fill-rule:nonzero;stroke:rgb(35,31,32);stroke-width:1.32px;"/>
                </g>
                <g transform="matrix(-0.00408687,0.469062,0.469062,0.00408687,-61.7775,63.5353)">
                    <path d="M209.09,347.842L215.208,347.842" style="fill:none;fill-rule:nonzero;stroke:rgb(35,31,32);stroke-width:1.32px;"/>
                </g>
                <g transform="matrix(-0.00404087,0.469063,0.469063,0.00404087,-70.2518,71.943)">
                    <path d="M191.199,347.842L197.317,347.842" style="fill:none;fill-rule:nonzero;stroke:rgb(35,31,32);stroke-width:1.32px;"/>
                </g>
                <g transform="matrix(0.46908,0,0,0.46908,1,-73.6707)">
                    <path d="M251.879,460.655L252.315,458.13L250.076,455.659L243.994,428.793L243.365,394.861L333.666,394.858L336.22,403.797L348.352,403.74L387.05,453.435L385.394,453.406L385.394,455.152L383.797,455.152L383.797,457.538L381.648,457.538L381.648,460.214L251.879,460.655Z" style="fill:white;stroke:rgb(35,31,32);stroke-width:1.31px;"/>
                </g>
                <g transform="matrix(0.0843011,0.461443,0.461443,-0.0843011,-64.0812,6.54994)">
                    <path d="M314.509,425.441L367.625,425.441" style="fill:none;fill-rule:nonzero;stroke:rgb(35,31,32);stroke-width:1.31px;"/>
                </g>
                <g transform="matrix(0.0881016,0.460732,0.460732,-0.0881016,-60.3671,2.71523)">
                    <path d="M326.653,425.441L380.198,425.441" style="fill:none;fill-rule:nonzero;stroke:rgb(35,31,32);stroke-width:1.31px;"/>
                </g>
                <g transform="matrix(0.469079,0.000876512,0.000876512,-0.469079,0.599269,327.38)">
                    <path d="M243.227,457.458L334.419,457.458" style="fill:none;fill-rule:nonzero;stroke:rgb(35,31,32);stroke-width:1.31px;"/>
                </g>
                <g transform="matrix(0.469079,0.000863451,0.000863451,-0.469079,0.609071,327.383)">
                    <path d="M243.229,453.018L336.127,453.018" style="fill:none;fill-rule:nonzero;stroke:rgb(35,31,32);stroke-width:1.31px;"/>
                </g>
                <g transform="matrix(0.469079,0.000857561,0.000857561,-0.469079,0.615251,327.384)">
                    <path d="M243.227,448.92L336.708,448.92" style="fill:none;fill-rule:nonzero;stroke:rgb(35,31,32);stroke-width:1.32px;"/>
                </g>
                <g transform="matrix(0.469079,0.000846446,0.000846446,-0.469079,0.623993,327.387)">
                    <path d="M243.227,444.481L337.658,444.481" style="fill:none;fill-rule:nonzero;stroke:rgb(35,31,32);stroke-width:1.32px;"/>
                </g>
                <g transform="matrix(0.464389,0.000841275,0.000832864,-0.469079,0.634152,327.386)">
                    <path d="M246.44,439.529L341.898,439.529" style="fill:none;fill-rule:nonzero;stroke:rgb(35,31,32);stroke-width:1.31px;"/>
                </g>
                <g transform="matrix(0.469079,0.000840705,0.000840705,-0.469079,0.634366,327.388)">
                    <path d="M243.974,435.175L339.497,435.175" style="fill:none;fill-rule:nonzero;stroke:rgb(35,31,32);stroke-width:1.31px;"/>
                </g>
                <g transform="matrix(0.469079,0.000836795,0.000836795,-0.469079,0.639632,327.389)">
                    <path d="M243.974,430.913L339.775,430.913" style="fill:none;fill-rule:nonzero;stroke:rgb(35,31,32);stroke-width:1.31px;"/>
                </g>
                <g transform="matrix(0.469079,0.000829443,0.000829443,-0.469079,0.646254,327.391)">
                    <path d="M243.974,426.744L340.794,426.744" style="fill:none;fill-rule:nonzero;stroke:rgb(35,31,32);stroke-width:1.31px;"/>
                </g>
                <g transform="matrix(0.469079,0.000825083,0.000825083,-0.469079,0.651554,327.391)">
                    <path d="M245.086,422.575L341.906,422.575" style="fill:none;fill-rule:nonzero;stroke:rgb(35,31,32);stroke-width:1.31px;"/>
                </g>
                <g transform="matrix(0.469079,0.000829443,0.000829443,-0.469079,0.653095,327.389)">
                    <path d="M245.827,418.498L342.647,418.498" style="fill:none;fill-rule:nonzero;stroke:rgb(35,31,32);stroke-width:1.31px;"/>
                </g>
                <g transform="matrix(0.469079,0.000827985,0.000827985,-0.469079,0.657004,327.389)">
                    <path d="M246.661,414.514L343.481,414.514" style="fill:none;fill-rule:nonzero;stroke:rgb(35,31,32);stroke-width:1.31px;"/>
                </g>
                <g transform="matrix(0.469079,0.000825562,0.000825562,-0.469079,0.661143,327.389)">
                    <path d="M247.124,410.716L343.944,410.716" style="fill:none;fill-rule:nonzero;stroke:rgb(35,31,32);stroke-width:1.31px;"/>
                </g>
                <g transform="matrix(0.469079,0.000834381,0.000834381,-0.469079,0.660928,327.386)">
                    <path d="M248.421,406.639L344.499,406.639" style="fill:none;fill-rule:nonzero;stroke:rgb(35,31,32);stroke-width:1.31px;"/>
                </g>
                <g transform="matrix(0.469079,0.000831936,0.000831936,-0.469079,0.664928,327.386)">
                    <path d="M249.348,403.026L345.426,403.026" style="fill:none;fill-rule:nonzero;stroke:rgb(35,31,32);stroke-width:1.31px;"/>
                </g>
                <g transform="matrix(0.46908,0,0,0.46908,1,-47.3401)">
                    <path d="M249.626,399.605L255.537,399.612L383.783,399.776" style="fill:none;fill-rule:nonzero;stroke:rgb(35,31,32);stroke-width:1.31px;"/>
                </g>
                <g transform="matrix(0.46439,0.000613438,0.000607305,-0.46908,0.758859,327.437)">
                    <path d="M254.962,397.277L385.645,397.277" style="fill:none;fill-rule:nonzero;stroke:rgb(35,31,32);stroke-width:1.31px;"/>
                </g>
                <g transform="matrix(0.469067,0.00346851,0.00346851,-0.469067,-0.549402,326.434)">
                    <path d="M336.854,447.978L351.23,447.978" style="fill:none;fill-rule:nonzero;stroke:rgb(35,31,32);stroke-width:1.31px;"/>
                </g>
                <g transform="matrix(0.469071,0.00290671,0.00290671,-0.469071,-0.28445,326.623)">
                    <path d="M337.705,442.964L354.956,442.964" style="fill:none;fill-rule:nonzero;stroke:rgb(35,31,32);stroke-width:1.31px;"/>
                </g>
                <g transform="matrix(0.469073,0.0024915,0.0024915,-0.469073,-0.0885792,326.761)">
                    <path d="M338.986,437.844L359.112,437.844" style="fill:none;fill-rule:nonzero;stroke:rgb(35,31,32);stroke-width:1.32px;"/>
                </g>
                <g transform="matrix(0.469075,0.00222178,0.00224422,-0.464385,370.325,288.354)">
                    <path d="M-449.084,351.176L-426.614,351.176" style="fill:none;fill-rule:nonzero;stroke:rgb(35,31,32);stroke-width:1.32px;"/>
                </g>
                <g transform="matrix(0.469076,0.00197028,0.00197028,-0.469076,0.156232,326.936)">
                    <path d="M340.58,428.99L366.03,428.99" style="fill:none;fill-rule:nonzero;stroke:rgb(35,31,32);stroke-width:1.31px;"/>
                </g>
                <g transform="matrix(0.469077,0.00177573,0.00179367,-0.464387,368.204,294.401)">
                    <path d="M-442.747,355.491L-414.633,355.491" style="fill:none;fill-rule:nonzero;stroke:rgb(35,31,32);stroke-width:1.33px;"/>
                </g>
                <g transform="matrix(0.464387,0.00162087,0.00160467,-0.469077,0.326138,327.047)">
                    <path d="M345.633,420.563L376.396,420.563" style="fill:none;fill-rule:nonzero;stroke:rgb(35,31,32);stroke-width:1.31px;"/>
                </g>
                <g transform="matrix(0.469078,0.00151836,0.00151836,-0.469078,0.368958,327.087)">
                    <path d="M342.925,416.189L376.043,416.189" style="fill:none;fill-rule:nonzero;stroke:rgb(35,31,32);stroke-width:1.31px;"/>
                </g>
                <g transform="matrix(0.469078,0.00141826,0.00143259,-0.464388,365.385,302.629)">
                    <path d="M-434.244,361.4L-398.783,361.4" style="fill:none;fill-rule:nonzero;stroke:rgb(35,31,32);stroke-width:1.33px;"/>
                </g>
                <g transform="matrix(0.464388,0.00131567,0.00130252,-0.469078,0.468163,327.15)">
                    <path d="M347.57,408.829L385.648,408.829" style="fill:none;fill-rule:nonzero;stroke:rgb(35,31,32);stroke-width:1.31px;"/>
                </g>
                <g transform="matrix(0.469078,0.00126821,0.00126821,-0.469078,0.48688,327.17)">
                    <path d="M344.839,405.095L384.453,405.095" style="fill:none;fill-rule:nonzero;stroke:rgb(35,31,32);stroke-width:1.32px;"/>
                </g>
                <g transform="matrix(0.469061,-0.00419022,-0.00423254,-0.464371,364.604,307.208)">
                    <path d="M-426.169,365.777L-385.994,365.777" style="fill:none;fill-rule:nonzero;stroke:rgb(35,31,32);stroke-width:1.32px;"/>
                </g>
                <g transform="matrix(0.50928,0,0,0.50928,1,-232.982)">
                    <path d="M98.116,528.628C96.188,532.423 92.051,534.005 86.404,534.076C77.759,534.265 73.175,543.765 76.871,555.593C74.293,553.216 72.566,549.843 71.226,546.018C70.353,549.598 71.027,552.971 73.251,556.138C67.143,555.265 65.936,559.611 68.503,565.126C72.715,561.857 75.805,562.286 78.778,568.122C85.168,577.411 102.018,577.374 109.828,567.578C102.914,575.922 106.226,580.281 114.186,582.83C112.322,575.806 113.648,570.464 119.633,567.578C128.537,562.13 131.451,549.696 125.898,541.43C132.046,547.049 137.756,542.012 136.52,535.166C132.369,538.211 127.766,535.125 123.719,527.539C115.51,511.967 102.769,503.202 83.408,504.388C85.094,498.07 82.83,494.545 71.969,497.306C74.538,501.037 72.241,504.676 64.07,508.201C51.269,514.102 42.462,525.451 37.65,542.247C31.608,541.388 27.906,544.559 27.028,552.597C30.689,549.747 33.931,549.839 36.56,554.232C40.257,578.099 51.621,593.738 72.241,599.445L86.949,599.445C91.785,599.439 93.419,601.709 91.852,606.254C99.548,604.988 100.12,597.903 94.031,594.542C94.815,593.145 97.304,593.456 100.568,594.542C98.033,589.907 94.272,588.219 89.673,588.55L76.054,588.822C87.322,587.643 88.533,584.128 82.864,579.017C80.367,583.838 76.399,585.097 71.424,583.92C66.092,582.475 61.916,579.375 58.39,575.009C53.144,568.706 49.605,561.044 47.455,552.052C46.988,545.869 49.232,541.044 53.72,537.345C58.967,532.765 63.906,538.006 58.078,542.247C64.348,544.936 70.185,540.764 68.425,534.582C66.643,530.358 63.157,527.983 58.895,526.45C63.09,521.756 67.698,518.986 72.513,517.189C77.686,515.439 81.026,521.047 77.96,526.177C86.976,526.546 91.125,523.257 89.4,515.555C100.324,516.826 109.285,522.338 116.285,532.092C118.285,535.698 118.969,539.614 115.857,543.842C112.861,546.984 109.931,546.893 106.832,543.882C105.303,548.963 105.902,553.267 111.19,555.866C103.42,566.238 89.372,567.855 83.953,556.683C82.869,552.779 82.755,548.874 84.77,544.971C86.158,542.553 87.856,542.411 89.864,544.547C85.76,542.105 82.817,547.009 89.4,548.784C93.59,550.056 96.551,547.842 96.714,542.519C96.681,539.217 95.229,537.674 92.124,537.889C99.388,535.681 100.766,532.491 98.116,528.628Z" style="fill:rgb(255,242,0);stroke:rgb(35,31,32);stroke-width:1.31px;"/>
                </g>
                <g transform="matrix(-0.283837,0.422851,0.422851,0.283837,-145.04,-100.67)">
                    <path d="M80.474,489.614C85.082,483.147 89.23,491.995 87.617,494.631L80.474,505.938C75.283,509.892 69.965,505.168 73.129,499.89L80.474,489.614Z" style="fill:rgb(255,242,0);stroke:rgb(35,31,32);stroke-width:1.31px;"/>
                </g>
                <g transform="matrix(-0.326039,0.391235,0.391235,0.326039,-114.662,-99.4088)">
                    <path d="M82.594,465.69C86.468,462.246 91.85,467.414 89.735,471.159L82.594,479.439C79.232,482.508 73.463,477.901 76.081,473.649L82.594,465.69Z" style="fill:rgb(255,242,0);stroke:rgb(35,31,32);stroke-width:1.31px;"/>
                </g>
                <g transform="matrix(-0.00604856,0.509244,0.509244,0.00604856,-175.925,64.01)">
                    <path d="M44.339,425.102L106.915,425.102L119.777,436.582L44.216,435.498L44.339,425.102Z" style="fill:rgb(255,242,0);stroke:rgb(35,31,32);stroke-width:1.31px;"/>
                </g>
                <g transform="matrix(0.00110297,0.509279,0.509279,-0.00110297,-93.6958,149.401)">
                    <path d="M-14.607,262.338L179.369,262.338L179.388,272.839L30.473,273.415C12.691,274.336 -1.346,268.988 -14.607,262.338Z" style="fill:rgb(255,242,0);stroke:rgb(35,31,32);stroke-width:1.31px;"/>
                </g>
                <g transform="matrix(-0.248061,0.444783,0.444783,0.248061,-11.6022,163.542)">
                    <path d="M82.216,162.802C84.677,160.037 87.993,163.159 87.125,165.221L82.216,173.834C80.048,176.833 76.46,173.63 77.73,171.226L82.216,162.802Z" style="fill:rgb(255,242,0);stroke:rgb(35,31,32);stroke-width:1.31px;"/>
                </g>
                <g transform="matrix(0.508944,-0.0184869,-0.0184869,-0.508944,4.05799,329.099)">
                    <path d="M77.052,162.302L87.251,162.302L87.547,165.35L77.091,165.916L77.052,162.302Z" style="fill:rgb(255,242,0);stroke:rgb(35,31,32);stroke-width:1.31px;"/>
                </g>
                <g transform="matrix(-0.303468,0.408991,0.408991,0.303468,3.35197,164.938)">
                    <path d="M82.814,152.297C86.987,148.28 89.992,154.7 88.968,156.287L82.814,164.815C80.228,167.627 74.31,165.831 76.537,160.446L82.814,152.297Z" style="fill:rgb(255,242,0);stroke:rgb(35,31,32);stroke-width:1.31px;"/>
                </g>
                <g transform="matrix(0.50928,0,0,0.50928,1,176.714)">
                    <path d="M78.69,144.139L82.952,152.2L87.028,144.139L78.69,144.139Z" style="fill:rgb(255,242,0);stroke:rgb(35,31,32);stroke-width:1.31px;"/>
                </g>
                <g transform="matrix(0.215522,0.461429,0.461429,-0.215522,-45.6041,244.445)">
                    <path d="M79.096,149.576L82.163,149.576L85.62,156.755L83.454,158.687L79.096,149.576Z" style="fill:rgb(255,242,0);stroke:rgb(35,31,32);stroke-width:1.31px;"/>
                </g>
                <g transform="matrix(0.50928,0,0,0.50928,1,-70.6292)">
                    <path d="M87.352,289.96L77.543,289.35L77.208,290.956L69.603,292.389C35.28,311.885 26.853,350.338 58.818,391.023C65.993,399.34 71.737,408.238 76.858,417.758C83.475,431.014 87.069,444.556 87.644,462.204L87.427,492.661C117.75,469.891 128.733,440.595 87.644,389.062L76.27,375.924C50.891,351.674 48.341,319.617 72.152,303.174L78.428,303.027L78.396,305.033L87.52,304.995L87.352,289.96Z" style="fill:white;stroke:rgb(35,31,32);stroke-width:1.31px;"/>
                </g>
                <g transform="matrix(-0.476428,-0.179951,-0.179951,0.476428,108.517,56.6927)">
                    <path d="M49.441,250.367C62.12,267.936 69.984,287.421 68.334,310.694L49.441,314.474C48.604,297.949 45.09,285.705 38.901,277.745L49.441,250.367Z" style="fill:white;stroke:rgb(35,31,32);stroke-width:1.31px;"/>
                </g>
                <g transform="matrix(0.50928,0,0,0.50928,1,76.8705)">
                    <path d="M28.103,241.422L32.55,235.863L53.304,249.297L54.045,256.524" style="fill:none;fill-rule:nonzero;stroke:rgb(35,31,32);stroke-width:1.31px;"/>
                </g>
                <g transform="matrix(-0.453059,-0.232602,-0.232602,0.453059,97.0053,85.9512)">
                    <ellipse cx="36.905" cy="260.061" rx="2.848" ry="4.435" style="fill:white;stroke:rgb(35,31,32);stroke-width:1.31px;"/>
                </g>
                <g transform="matrix(-0.453058,-0.232604,-0.232604,0.453058,102.793,92.0694)">
                    <ellipse cx="44.039" cy="255.427" rx="2.848" ry="4.435" style="fill:white;stroke:rgb(35,31,32);stroke-width:1.31px;"/>
                </g>
                <g transform="matrix(-0.479797,-0.170765,-0.170765,0.479797,93.9388,87.9449)">
                    <ellipse cx="50.617" cy="251.074" rx="2.848" ry="4.435" style="fill:white;stroke:rgb(35,31,32);stroke-width:1.31px;"/>
                </g>
                <g transform="matrix(0.50928,0,0,0.50928,1,67.6693)">
                    <path d="M42.556,248.371L37.738,257.451L35.7,262.083" style="fill:none;fill-rule:nonzero;stroke:rgb(35,31,32);stroke-width:1.31px;"/>
                </g>
                <g transform="matrix(0.50928,0,0,0.50928,1,72.0576)">
                    <path d="M50.061,243.923L44.872,252.91L42.556,257.914" style="fill:none;fill-rule:nonzero;stroke:rgb(35,31,32);stroke-width:1.31px;"/>
                </g>
                <g transform="matrix(-0.2561,0.440203,0.440203,0.2561,-85.4395,119.696)">
                    <path d="M29.602,252.957L35.498,252.957" style="fill:none;fill-rule:nonzero;stroke:rgb(35,31,32);stroke-width:1.31px;"/>
                </g>
                <g transform="matrix(-0.255521,0.44054,0.44054,0.255521,-83.5208,119.658)">
                    <path d="M31.957,251.984L37.312,251.984" style="fill:none;fill-rule:nonzero;stroke:rgb(35,31,32);stroke-width:1.31px;"/>
                </g>
                <g transform="matrix(-0.205137,0.466138,0.466138,0.205137,-87.4953,131.355)">
                    <path d="M36.319,249.39L41.381,249.39" style="fill:none;fill-rule:nonzero;stroke:rgb(35,31,32);stroke-width:1.31px;"/>
                </g>
                <g transform="matrix(-0.223879,0.457432,0.457432,0.223879,-82.2748,127.034)">
                    <path d="M38.696,247.954L43.544,247.954" style="fill:none;fill-rule:nonzero;stroke:rgb(35,31,32);stroke-width:1.31px;"/>
                </g>
                <g transform="matrix(-0.234974,0.451833,0.451833,0.234974,-75.3931,124.805)">
                    <path d="M43.281,244.665L48.502,244.665" style="fill:none;fill-rule:nonzero;stroke:rgb(35,31,32);stroke-width:1.31px;"/>
                </g>
                <g transform="matrix(-0.245142,0.446398,0.446398,0.245142,-71.0966,122.645)">
                    <path d="M45.605,243.136L50.996,243.136" style="fill:none;fill-rule:nonzero;stroke:rgb(35,31,32);stroke-width:1.31px;"/>
                </g>
                <g transform="matrix(-0.248044,0.444793,0.444793,0.248044,-68.0972,122.124)">
                    <path d="M47.905,241.608L53.421,241.608" style="fill:none;fill-rule:nonzero;stroke:rgb(35,31,32);stroke-width:1.31px;"/>
                </g>
                <g transform="matrix(0.50928,0,0,0.50928,1,-164.846)">
                    <path d="M78.227,488.033L77.115,477.471L85.453,477.563L85.576,489.54" style="fill:none;fill-rule:nonzero;stroke:rgb(35,31,32);stroke-width:1.31px;"/>
                </g>
                <g transform="matrix(0.0631684,0.505347,0.505347,-0.0631684,-210.636,73.8405)">
                    <path d="M68.872,484.537L80.077,484.537" style="fill:none;fill-rule:nonzero;stroke:rgb(35,31,32);stroke-width:1.31px;"/>
                </g>
                <g transform="matrix(0.0653171,0.505074,0.505074,-0.0653171,-211.727,76.2069)">
                    <path d="M66.554,484.444L77.391,484.444" style="fill:none;fill-rule:nonzero;stroke:rgb(35,31,32);stroke-width:1.31px;"/>
                </g>
                <g transform="matrix(0.113243,0.49653,0.49653,-0.113243,-211.412,101.735)">
                    <path d="M64.101,483.24L74.934,483.24" style="fill:none;fill-rule:nonzero;stroke:rgb(35,31,32);stroke-width:1.31px;"/>
                </g>
                <g transform="matrix(0.50928,0,0,0.50928,1,-83.7072)">
                    <path d="M68.586,321.021C33.658,345.373 31.729,381.596 66.619,421.536C82.407,442.559 92.569,468.332 87.574,486.669" style="fill:none;fill-rule:nonzero;stroke:rgb(35,31,32);stroke-width:1.31px;"/>
                </g>
                <g transform="matrix(0.50928,0,0,0.50928,1,-66.6138)">
                    <path d="M69.915,293.261C46.568,314.002 45.691,340.818 77.655,374.768C86.324,384.837 94.823,394.493 101.803,406.876C119.434,439.984 111.69,463.322 87.562,480.866" style="fill:none;fill-rule:nonzero;stroke:rgb(35,31,32);stroke-width:1.31px;"/>
                </g>
                <g transform="matrix(-0.358117,0.362103,0.362103,0.358117,-52.7279,46.4713)">
                    <path d="M42.675,298.059C56.826,295.5 69.871,295.939 82.297,298.059" style="fill:none;fill-rule:nonzero;stroke:rgb(35,31,32);stroke-width:1.31px;"/>
                </g>
                <g transform="matrix(-0.36448,0.355697,0.355697,0.36448,-38.0877,55.3261)">
                    <path d="M61.482,282.968C68.454,280.426 74.268,280.861 79.433,282.968" style="fill:none;fill-rule:nonzero;stroke:rgb(35,31,32);stroke-width:1.31px;"/>
                </g>
                <g transform="matrix(0.50928,0,0,0.50928,1,51.8692)">
                    <path d="M52.735,263.851L49.794,267.876L46.078,265.864L44.531,268.03L49.02,271.281L46.698,275.461L49.174,277.627L51.187,273.139L55.056,276.854L56.759,274.068L52.58,269.733L55.366,265.244L52.735,263.851Z" style="fill:white;stroke:rgb(35,31,32);stroke-width:1.31px;"/>
                </g>
                <g transform="matrix(0.50928,0,0,0.50928,1,-232.982)">
                    <path d="M412.966,528.628C414.894,532.423 419.031,534.005 424.677,534.076C433.323,534.265 437.907,543.765 434.21,555.593C436.789,553.216 438.515,549.843 439.855,546.018C440.729,549.598 440.054,552.971 437.831,556.138C443.938,555.265 445.145,559.611 442.58,565.126C438.366,561.857 435.277,562.286 432.303,568.122C425.913,577.411 409.063,577.374 401.254,567.578C408.167,575.922 404.856,580.281 396.896,582.83C398.759,575.806 397.434,570.464 391.448,567.578C382.545,562.13 379.631,549.696 385.184,541.43C379.036,547.049 373.326,542.012 374.562,535.166C378.713,538.211 383.316,535.125 387.363,527.539C395.572,511.967 408.312,503.202 427.674,504.388C425.988,498.07 428.252,494.545 439.113,497.306C436.544,501.037 438.841,504.676 447.012,508.201C459.813,514.102 468.619,525.451 473.432,542.247C479.474,541.388 483.176,544.559 484.054,552.597C480.392,549.747 477.151,549.839 474.521,554.232C470.825,578.099 459.46,593.738 438.841,599.445L424.133,599.445C419.297,599.439 417.663,601.709 419.23,606.254C411.534,604.988 410.961,597.903 417.051,594.542C416.267,593.145 413.778,593.456 410.514,594.542C413.049,589.907 416.809,588.219 421.409,588.55L435.027,588.822C423.759,587.643 422.548,584.128 428.218,579.017C430.714,583.838 434.683,585.097 439.658,583.92C444.989,582.475 449.166,579.375 452.691,575.009C457.938,568.706 461.477,561.044 463.627,552.052C464.094,545.869 461.85,541.044 457.362,537.345C452.114,532.765 447.176,538.006 453.004,542.247C446.733,544.936 440.897,540.764 442.657,534.582C444.438,530.358 447.925,527.983 452.187,526.45C447.991,521.756 443.384,518.986 438.568,517.189C433.395,515.439 430.056,521.047 433.121,526.177C424.106,526.546 419.957,523.257 421.681,515.555C410.758,516.826 401.797,522.338 394.797,532.092C392.796,535.698 392.113,539.614 395.224,543.842C398.22,546.984 401.151,546.893 404.249,543.882C405.78,548.963 405.18,553.267 399.892,555.866C407.661,566.238 421.71,567.855 427.129,556.683C428.212,552.779 428.327,548.874 426.311,544.971C424.923,542.553 423.225,542.411 421.218,544.547C425.321,542.105 428.265,547.009 421.681,548.784C417.491,550.056 414.53,547.842 414.367,542.519C414.401,539.217 415.853,537.674 418.958,537.889C411.693,535.681 410.316,532.491 412.966,528.628Z" style="fill:rgb(255,242,0);stroke:rgb(35,31,32);stroke-width:1.31px;"/>
                </g>
                <g transform="matrix(-0.283834,-0.422853,-0.422853,0.283834,552.387,115.444)">
                    <path d="M430.607,489.614C426,483.147 421.852,491.995 423.465,494.631L430.607,505.938C435.799,509.892 441.116,505.168 437.953,499.89L430.607,489.614Z" style="fill:rgb(255,242,0);stroke:rgb(35,31,32);stroke-width:1.31px;"/>
                </g>
                <g transform="matrix(-0.326028,-0.391244,-0.391244,0.326028,543.578,100.553)">
                    <path d="M428.488,465.69C424.613,462.246 419.231,467.414 421.347,471.159L428.488,479.439C431.849,482.507 437.618,477.901 435.001,473.65L428.488,465.69Z" style="fill:rgb(255,242,0);stroke:rgb(35,31,32);stroke-width:1.31px;"/>
                </g>
                <g transform="matrix(0.0060445,0.509244,0.509244,-0.0060445,-2.31668,-107.47)">
                    <path d="M391.296,435.839L453.872,435.839L466.734,424.359L391.173,425.442L391.296,435.839Z" style="fill:rgb(255,242,0);stroke:rgb(35,31,32);stroke-width:1.31px;"/>
                </g>
                <g transform="matrix(-0.00110297,0.509279,0.509279,0.00110297,83.2287,-27.5506)">
                    <path d="M331.688,273.975L525.663,273.975L525.683,263.474L376.768,262.898C358.985,261.976 344.948,267.325 331.688,273.975Z" style="fill:rgb(255,242,0);stroke:rgb(35,31,32);stroke-width:1.31px;"/>
                </g>
                <g transform="matrix(-0.248063,-0.444782,-0.444782,0.248063,400.666,390.862)">
                    <path d="M428.866,162.802C426.405,160.037 423.089,163.16 423.956,165.221L428.866,173.835C431.034,176.834 434.622,173.63 433.352,171.226L428.866,162.802Z" style="fill:rgb(255,242,0);stroke:rgb(35,31,32);stroke-width:1.31px;"/>
                </g>
                <g transform="matrix(-0.508944,-0.0184873,-0.0184873,0.508944,440.67,168.654)">
                    <path d="M423.621,165.539L433.819,165.539L434.115,162.49L423.66,161.925L423.621,165.539Z" style="fill:rgb(255,242,0);stroke:rgb(35,31,32);stroke-width:1.31px;"/>
                </g>
                <g transform="matrix(-0.303468,-0.408991,-0.408991,0.303468,414.029,373.965)">
                    <path d="M428.268,152.297C424.094,148.279 421.09,154.7 422.114,156.287L428.268,164.815C430.853,167.626 436.772,165.831 434.545,160.446L428.268,152.297Z" style="fill:rgb(255,242,0);stroke:rgb(35,31,32);stroke-width:1.31px;"/>
                </g>
                <g transform="matrix(0.50928,0,0,0.50928,1,176.714)">
                    <path d="M432.392,144.139L428.13,152.2L424.053,144.139L432.392,144.139Z" style="fill:rgb(255,242,0);stroke:rgb(35,31,32);stroke-width:1.31px;"/>
                </g>
                <g transform="matrix(-0.215372,0.461499,0.461499,0.215372,240.687,18.5942)">
                    <path d="M425.11,157.512L428.177,157.512L431.631,150.331L429.465,148.399L425.11,157.512Z" style="fill:rgb(255,242,0);stroke:rgb(35,31,32);stroke-width:1.31px;"/>
                </g>
                <g transform="matrix(0.50928,0,0,0.50928,1,-70.6292)">
                    <path d="M423.729,289.96L433.539,289.35L433.874,290.956L441.478,292.389C475.802,311.885 484.229,350.338 452.264,391.023C445.089,399.34 439.345,408.238 434.223,417.758C427.606,431.014 424.012,444.556 423.438,462.204L423.655,492.661C393.332,469.891 382.349,440.595 423.438,389.062L434.811,375.924C460.191,351.674 462.74,319.617 438.929,303.174L432.655,303.027L432.686,305.033L423.561,304.995L423.729,289.96Z" style="fill:white;stroke:rgb(35,31,32);stroke-width:1.31px;"/>
                </g>
                <g transform="matrix(-0.476428,0.179951,0.179951,0.476428,397.26,-35.2767)">
                    <path d="M461.64,250.367C448.962,267.936 441.097,287.421 442.747,310.694L461.64,314.474C462.478,297.949 465.991,285.705 472.18,277.745L461.64,250.367Z" style="fill:white;stroke:rgb(35,31,32);stroke-width:1.31px;"/>
                </g>
                <g transform="matrix(0.50928,0,0,0.50928,1,76.8705)">
                    <path d="M482.979,241.422L478.532,235.863L457.779,249.297L457.037,256.524" style="fill:none;fill-rule:nonzero;stroke:rgb(35,31,32);stroke-width:1.31px;"/>
                </g>
                <g transform="matrix(-0.453056,0.232609,0.232609,0.453056,396.825,-32.928)">
                    <ellipse cx="474.177" cy="260.059" rx="2.848" ry="4.435" style="fill:white;stroke:rgb(35,31,32);stroke-width:1.31px;"/>
                </g>
                <g transform="matrix(-0.453048,0.232623,0.232623,0.453048,391.031,-26.8148)">
                    <ellipse cx="467.042" cy="255.426" rx="2.848" ry="4.435" style="fill:white;stroke:rgb(35,31,32);stroke-width:1.31px;"/>
                </g>
                <g transform="matrix(-0.479808,0.170735,0.170735,0.479808,413.578,0.684452)">
                    <ellipse cx="460.47" cy="251.07" rx="2.848" ry="4.435" style="fill:white;stroke:rgb(35,31,32);stroke-width:1.31px;"/>
                </g>
                <g transform="matrix(0.50928,0,0,0.50928,1,67.6693)">
                    <path d="M468.526,248.371L473.344,257.451L475.382,262.083" style="fill:none;fill-rule:nonzero;stroke:rgb(35,31,32);stroke-width:1.31px;"/>
                </g>
                <g transform="matrix(0.50928,0,0,0.50928,1,72.0576)">
                    <path d="M461.021,243.923L466.209,252.91L468.526,257.914" style="fill:none;fill-rule:nonzero;stroke:rgb(35,31,32);stroke-width:1.31px;"/>
                </g>
                <g transform="matrix(0.256081,0.440214,0.440214,-0.256081,10.8083,52.9284)">
                    <path d="M475.584,252.957L481.48,252.957" style="fill:none;fill-rule:nonzero;stroke:rgb(35,31,32);stroke-width:1.31px;"/>
                </g>
                <g transform="matrix(0.255521,0.44054,0.44054,-0.255521,10.8938,53.7962)">
                    <path d="M473.77,251.984L479.125,251.984" style="fill:none;fill-rule:nonzero;stroke:rgb(35,31,32);stroke-width:1.31px;"/>
                </g>
                <g transform="matrix(0.205086,0.466161,0.466161,-0.205086,28.3941,31.6345)">
                    <path d="M469.701,249.39L474.762,249.39" style="fill:none;fill-rule:nonzero;stroke:rgb(35,31,32);stroke-width:1.31px;"/>
                </g>
                <g transform="matrix(0.223879,0.457432,0.457432,-0.223879,21.7054,41.8915)">
                    <path d="M467.537,247.954L472.386,247.954" style="fill:none;fill-rule:nonzero;stroke:rgb(35,31,32);stroke-width:1.31px;"/>
                </g>
                <g transform="matrix(0.234966,0.451837,0.451837,-0.234966,18.0594,50.328)">
                    <path d="M462.58,244.665L467.801,244.665" style="fill:none;fill-rule:nonzero;stroke:rgb(35,31,32);stroke-width:1.31px;"/>
                </g>
                <g transform="matrix(0.245121,0.44641,0.44641,-0.245121,14.7095,56.8164)">
                    <path d="M460.086,243.136L465.477,243.136" style="fill:none;fill-rule:nonzero;stroke:rgb(35,31,32);stroke-width:1.31px;"/>
                </g>
                <g transform="matrix(0.248044,0.444793,0.444793,-0.248044,13.8129,59.7258)">
                    <path d="M457.661,241.608L463.177,241.608" style="fill:none;fill-rule:nonzero;stroke:rgb(35,31,32);stroke-width:1.31px;"/>
                </g>
                <g transform="matrix(0.50928,0,0,0.50928,1,-164.846)">
                    <path d="M432.855,488.033L433.967,477.471L425.628,477.563L425.506,489.54" style="fill:none;fill-rule:nonzero;stroke:rgb(35,31,32);stroke-width:1.31px;"/>
                </g>
                <g transform="matrix(-0.0631729,0.505347,0.505347,0.0631729,6.07829,-170.379)">
                    <path d="M431.005,484.537L442.21,484.537" style="fill:none;fill-rule:nonzero;stroke:rgb(35,31,32);stroke-width:1.31px;"/>
                </g>
                <g transform="matrix(-0.0653171,0.505074,0.505074,0.0653171,8.63082,-172.509)">
                    <path d="M433.691,484.444L444.528,484.444" style="fill:none;fill-rule:nonzero;stroke:rgb(35,31,32);stroke-width:1.31px;"/>
                </g>
                <g transform="matrix(-0.113216,0.496536,0.496536,0.113216,35.9259,-192.434)">
                    <path d="M436.148,483.24L446.981,483.24" style="fill:none;fill-rule:nonzero;stroke:rgb(35,31,32);stroke-width:1.31px;"/>
                </g>
                <g transform="matrix(0.50928,0,0,0.50928,1,-83.7072)">
                    <path d="M442.495,321.021C477.423,345.373 479.353,381.596 444.462,421.536C428.674,442.559 418.513,468.332 423.508,486.669" style="fill:none;fill-rule:nonzero;stroke:rgb(35,31,32);stroke-width:1.31px;"/>
                </g>
                <g transform="matrix(0.50928,0,0,0.50928,1,-66.6138)">
                    <path d="M441.166,293.261C464.514,314.002 465.391,340.818 433.426,374.768C424.758,384.837 416.259,394.493 409.278,406.876C391.647,439.984 399.392,463.322 423.52,480.866" style="fill:none;fill-rule:nonzero;stroke:rgb(35,31,32);stroke-width:1.31px;"/>
                </g>
                <g transform="matrix(0.358117,0.362103,0.362103,-0.358117,-39.117,120.14)">
                    <path d="M428.784,298.059C442.935,300.619 455.98,300.18 468.407,298.059" style="fill:none;fill-rule:nonzero;stroke:rgb(35,31,32);stroke-width:1.31px;"/>
                </g>
                <g transform="matrix(0.364479,0.355698,0.355698,-0.364479,-35.8483,129.93)">
                    <path d="M431.648,282.968C438.62,285.51 444.434,285.074 449.599,282.968" style="fill:none;fill-rule:nonzero;stroke:rgb(35,31,32);stroke-width:1.31px;"/>
                </g>
                <g transform="matrix(0.50928,0,0,0.50928,1,51.8692)">
                    <path d="M458.348,263.851L461.288,267.876L465.003,265.864L466.551,268.03L462.062,271.281L464.384,275.461L461.907,277.627L459.895,273.139L456.025,276.854L454.323,274.068L458.502,269.733L455.716,265.244L458.348,263.851Z" style="fill:white;stroke:rgb(35,31,32);stroke-width:1.31px;"/>
                </g>
            </g>
        </g>
    </g>
</svg>
